<svg width="59" height="17" viewBox="0 0 59 17" fill="none" xmlns="http://www.w3.org/2000/svg">
<rect x="0.378221" y="0.147325" width="58.0181" height="15.8231" rx="1.00692" stroke="#3869EB" stroke-width="0.287693"/>
<path d="M32.8402 8.07986C32.8402 6.16156 31.2945 4.60645 29.3879 4.60645C27.4812 4.60645 25.9355 6.16153 25.9355 8.07986C25.9355 9.81352 27.198 11.2505 28.8484 11.5111V9.08389H27.9719V8.07986H28.8484V7.31462C28.8484 6.4441 29.3639 5.96325 30.1524 5.96325C30.5301 5.96325 30.9252 6.03109 30.9252 6.03109V6.88587H30.4899C30.061 6.88587 29.9273 7.15362 29.9273 7.42832V8.07986H30.8848L30.7317 9.08389H29.9273V11.5111C31.5777 11.2505 32.8402 9.81355 32.8402 8.07986Z" fill="#1877F2"/>
</svg>
