<svg width="15" height="15" viewBox="0 0 15 15" fill="none" xmlns="http://www.w3.org/2000/svg">
<g clip-path="url(#clip0_2743_1210)">
<path d="M7.31327 8.52785C7.78994 8.52785 8.17635 8.14144 8.17635 7.66478C8.17635 7.18811 7.78994 6.8017 7.31327 6.8017C6.83661 6.8017 6.4502 7.18811 6.4502 7.66478C6.4502 8.14144 6.83661 8.52785 7.31327 8.52785Z" fill="#313131"/>
<path d="M10.4809 7.43013C10.1241 6.8783 9.66113 6.40954 9.1422 6.07442C8.56812 5.7033 7.9343 5.50708 7.30938 5.50708C6.73597 5.50708 6.17214 5.67093 5.63352 5.99405C5.08425 6.3235 4.58663 6.8048 4.15442 7.42446C4.10563 7.49449 4.07876 7.57745 4.07722 7.66279C4.07568 7.74813 4.09955 7.832 4.14579 7.90374C4.50194 8.4611 4.96032 8.93053 5.47115 9.26107C6.04632 9.63367 6.6653 9.82247 7.30938 9.82247C7.93929 9.82247 8.57446 9.62787 9.14612 9.25985C9.66477 8.92581 10.1268 8.4553 10.4823 7.89889C10.5269 7.82881 10.5505 7.7474 10.5503 7.66431C10.55 7.58122 10.526 7.49994 10.4809 7.43013V7.43013ZM7.31396 8.95939C7.05791 8.95939 6.80761 8.88347 6.59471 8.74121C6.38181 8.59896 6.21588 8.39677 6.11789 8.1602C6.0199 7.92364 5.99427 7.66334 6.04422 7.41221C6.09417 7.16108 6.21747 6.9304 6.39853 6.74934C6.57958 6.56829 6.81026 6.44499 7.06139 6.39503C7.31253 6.34508 7.57283 6.37072 7.80939 6.46871C8.04595 6.56669 8.24814 6.73263 8.3904 6.94553C8.53265 7.15842 8.60858 7.40872 8.60858 7.66478C8.60819 8.00801 8.47166 8.33707 8.22896 8.57978C7.98626 8.82248 7.65719 8.959 7.31396 8.95939V8.95939Z" fill="#313131"/>
</g>
<defs>
<clipPath id="clip0_2743_1210">
<rect width="6.90463" height="6.90463" fill="white" transform="translate(3.86133 4.21246)"/>
</clipPath>
</defs>
</svg>
