<svg version="1.1" id="Layer_1" xmlns="http://www.w3.org/2000/svg" xmlns:xlink="http://www.w3.org/1999/xlink" x="0px" y="0px"
	 width="100%" viewBox="0 0 238 212" enable-background="new 0 0 238 212" xml:space="preserve">
<path fill="#EEEEEE" opacity="1.000000" stroke="none" 
	d="
M238.717438,89.761620 
	C239.000000,100.020897 239.000000,110.041786 239.000000,120.531342 
	C236.973480,122.340897 235.045776,121.297653 234.291656,119.775085 
	C232.337448,115.829575 229.165359,112.770859 226.477081,109.548561 
	C223.184464,105.601906 221.232605,100.395653 216.431274,97.732216 
	C215.036453,96.958458 214.243378,95.704323 213.841461,94.207397 
	C213.275192,92.098328 212.047913,90.712158 209.869614,90.177254 
	C206.487625,89.346794 204.862946,87.044197 204.771576,83.663193 
	C204.686310,80.507973 203.252029,78.326164 200.464157,76.906952 
	C198.970352,76.146515 197.658447,75.081589 196.649536,73.735329 
	C195.462112,72.150833 194.708801,70.399750 192.120300,72.343575 
	C190.702866,73.407997 189.354492,71.833809 189.001801,70.183914 
	C188.513382,67.899071 187.847061,65.675781 187.127777,63.457088 
	C185.243622,57.645195 182.001617,55.480225 175.850540,56.254398 
	C173.726791,56.521690 173.169739,55.255177 172.903015,53.728954 
	C172.469757,51.249817 171.529327,48.931351 170.876282,46.524799 
	C170.569901,45.395794 170.404480,44.012993 169.362457,43.460838 
	C162.984512,40.081272 159.915512,34.138016 156.893524,28.044350 
	C155.795547,25.830324 152.665833,25.351336 151.481018,22.549351 
	C150.238602,17.311821 150.238602,17.311821 142.026566,17.309925 
	C140.747101,14.657776 139.632095,12.303521 136.696152,10.934588 
	C136.157623,7.551442 136.293686,4.549489 137.747864,1.334409 
	C146.020905,1.000000 154.041809,1.000000 162.531357,1.000000 
	C165.142059,7.421043 167.352798,13.806686 171.277237,19.434330 
	C171.839127,20.240067 171.999557,21.598150 172.823135,21.934486 
	C178.129013,24.101282 179.718521,30.223373 184.748657,32.788445 
	C188.248138,34.572971 188.504700,38.889507 190.185532,42.055908 
	C191.540695,44.608810 192.591064,47.078003 195.539902,48.206219 
	C197.318665,48.886765 198.396301,50.434860 199.095062,52.194847 
	C199.736633,53.810802 200.744522,55.081676 202.413269,55.704273 
	C204.730011,56.568623 206.345291,58.115494 207.215851,60.441940 
	C207.835114,62.096870 209.016846,63.188644 210.655304,63.828316 
	C211.586044,64.191689 212.876862,64.524811 213.143494,65.369316 
	C214.780182,70.553307 220.629639,71.664864 223.141129,75.943802 
	C223.868927,77.183792 225.084854,77.689034 226.336899,78.172981 
	C228.136307,78.868492 229.706207,80.115479 230.119553,81.904198 
	C231.172791,86.462074 234.529938,88.227257 238.717438,89.761620 
z"/>
<path fill="#FFFFFF" opacity="1.000000" stroke="none" 
	d="
M59.221550,212.698807 
	C40.727634,213.000000 22.454447,212.913895 4.183755,213.088684 
	C1.295146,213.116318 0.914717,212.351990 0.928730,209.704147 
	C1.051806,186.449066 1.000000,163.193054 1.000000,139.468658 
	C1.761028,138.358353 2.596549,138.399109 3.198905,139.089447 
	C7.836885,144.404755 12.215813,149.907791 15.108299,156.421997 
	C15.443228,157.176300 15.519771,158.301117 16.248600,158.559891 
	C20.261656,159.984741 21.726980,164.819107 24.692362,166.218582 
	C30.261944,168.847046 31.761097,174.016754 34.493874,178.192398 
	C37.625332,182.977234 42.686764,186.258957 44.622494,191.869263 
	C46.964527,198.657196 54.474850,201.233398 57.512882,207.534286 
	C58.283276,209.132065 59.884510,210.329575 59.221550,212.698807 
z"/>
<path fill="#E9E9EA" opacity="1.000000" stroke="none" 
	d="
M151.114197,22.004784 
	C158.160156,25.673122 160.895294,32.580051 164.528824,38.798729 
	C164.775574,39.221062 165.117188,39.812706 165.505539,39.894562 
	C174.183029,41.723572 172.241440,49.850494 174.641342,55.400448 
	C178.385193,52.686649 187.146088,56.133308 187.842499,60.894333 
	C188.302368,64.038170 190.599808,66.647278 190.071014,69.987671 
	C189.932632,70.861763 190.428452,71.685181 191.408249,71.754318 
	C192.393219,71.823814 192.820740,71.095718 192.971252,70.183853 
	C193.136246,69.184181 193.309219,68.083710 194.695557,68.264870 
	C196.034973,68.439888 195.778351,69.688820 196.087677,70.581139 
	C196.950027,73.068825 198.735199,74.928070 201.077469,75.815079 
	C204.730621,77.198509 206.324356,79.548340 206.020676,83.404282 
	C205.758865,86.728569 207.058350,88.882233 210.719711,89.027863 
	C211.365952,89.053566 212.506973,89.182281 212.570663,89.458878 
	C213.850754,95.018600 219.984482,96.823784 222.000671,101.763023 
	C222.245895,102.363792 222.169067,103.498047 222.494324,103.603233 
	C226.743225,104.977295 227.113312,110.048004 229.930511,111.934250 
	C233.623260,114.406723 233.201828,120.202255 238.633667,120.961761 
	C239.000000,128.687576 239.000000,136.375168 239.000000,144.531372 
	C235.624496,147.139145 233.640213,145.193466 232.316818,142.429291 
	C229.847000,137.270584 226.426468,133.164459 221.487015,130.096848 
	C217.486557,127.612389 217.254776,122.393867 214.529572,118.821785 
	C213.011963,116.832573 211.159653,115.283730 209.630783,113.477982 
	C205.452438,108.542885 199.230316,105.447845 196.695480,99.039261 
	C195.760406,96.675186 194.198853,94.785614 191.510925,94.070549 
	C188.618988,93.301208 187.212997,91.219376 186.742523,88.328781 
	C186.392166,86.176331 186.017395,83.909927 182.651672,84.067200 
	C182.071716,84.188515 181.840759,84.246910 181.262573,84.404465 
	C180.680283,84.566956 180.445236,84.630295 179.848114,84.761642 
	C178.733032,84.904747 178.003555,84.817520 177.016357,84.280296 
	C176.637665,83.818596 176.548126,83.590019 176.454315,82.995682 
	C176.680267,81.604202 177.364243,80.895454 178.102631,80.210594 
	C183.270004,75.417770 183.198303,75.475723 178.167038,70.379326 
	C171.544785,63.671356 163.285675,60.717506 153.913116,59.291634 
	C152.552017,56.292732 151.121429,53.782654 149.414795,51.295612 
	C146.791962,47.473427 147.194000,42.821827 147.542847,38.015930 
	C147.724121,37.453602 147.808472,37.235638 148.057220,36.718483 
	C148.366516,36.252468 148.511414,36.085651 148.945312,35.786278 
	C149.611069,35.748581 149.746628,36.286591 149.900681,36.322414 
	C150.539261,36.470905 149.864838,36.582169 149.732208,35.685585 
	C149.392502,35.067970 149.329575,34.668072 149.367218,33.945335 
	C149.717896,32.339176 149.320831,31.110456 148.995422,29.526485 
	C148.922638,26.681698 149.280319,24.279724 151.114197,22.004784 
z"/>
<path fill="#DCDCDE" opacity="1.000000" stroke="none" 
	d="
M238.733414,183.745651 
	C239.000000,189.354935 239.000000,194.709854 239.000000,200.532394 
	C233.548050,202.418015 231.095413,201.386642 229.163605,196.747742 
	C228.585144,195.358704 228.226288,193.669067 226.865005,193.011551 
	C221.762772,190.547211 219.181686,185.305115 214.666840,182.226425 
	C213.124985,181.175034 212.015900,179.737427 211.203033,178.065506 
	C211.057999,177.767227 210.991608,177.343918 210.755569,177.189255 
	C205.107422,173.487808 203.128204,166.523056 197.860214,162.575745 
	C194.720352,160.223022 194.017838,156.954788 193.166840,152.920700 
	C191.267212,154.611755 190.323242,157.586960 187.036270,156.324936 
	C186.951279,150.840042 183.447662,148.097656 179.762878,145.175903 
	C170.987274,138.217560 165.661163,129.084442 164.023727,117.960312 
	C163.574265,114.906715 162.986450,111.704590 165.266418,108.619781 
	C169.910583,107.432487 173.022507,109.763504 175.583771,112.619698 
	C178.645554,116.034027 182.091705,119.360191 182.374802,124.462624 
	C182.455566,125.918243 183.202744,127.127983 184.943665,126.709778 
	C188.677765,125.812759 189.798370,128.140945 190.061584,131.027588 
	C190.314804,133.804535 191.908005,135.269852 193.835724,137.034134 
	C198.487381,141.291397 205.306107,143.485703 207.061508,150.635635 
	C207.384537,151.951416 209.008072,152.348831 210.262070,152.790939 
	C211.937637,153.381668 213.073975,154.494400 213.727997,156.128754 
	C213.851227,156.436707 213.901230,156.917999 214.120850,157.022934 
	C221.030380,160.324310 221.800339,168.494965 227.060608,173.246643 
	C230.848190,176.668060 234.302963,180.469986 238.733414,183.745651 
z"/>
<path fill="#F2F2F2" opacity="1.000000" stroke="none" 
	d="
M239.000000,89.541931 
	C234.503235,89.772026 230.201035,89.295219 229.625763,83.427078 
	C229.564835,82.805565 229.221619,81.860214 228.767975,81.683014 
	C224.168518,79.886406 222.172379,74.803726 217.641693,72.966751 
	C217.490128,72.905304 217.218719,72.950516 217.167847,72.856712 
	C214.459808,67.862114 208.860916,65.532722 205.983673,60.706615 
	C205.737381,60.293533 205.816742,59.487057 205.512283,59.337860 
	C201.092392,57.171947 198.891907,51.592300 195.463425,49.986237 
	C189.821915,47.343506 189.625641,42.386417 187.169479,38.500957 
	C185.678635,36.142548 185.309113,33.153671 181.812866,32.804913 
	C181.658661,32.789528 181.424957,32.696053 181.380569,32.580463 
	C179.151749,26.777136 172.350525,25.081230 169.774261,19.341383 
	C168.269897,15.989717 166.237366,12.782273 164.485855,9.482047 
	C163.113007,6.895287 163.069916,4.475226 163.000000,1.428848 
	C166.030594,1.000000 169.061188,1.000000 172.545898,1.000000 
	C174.478546,4.729867 175.368561,8.461104 180.143250,10.178807 
	C182.780151,11.127434 182.949203,15.567026 184.626694,18.252729 
	C185.712204,19.990700 186.674438,21.613541 188.614487,22.495529 
	C190.650543,23.421167 192.184906,24.894522 193.064041,27.000809 
	C193.450912,27.927708 193.964828,28.782005 194.791687,29.400890 
	C200.680695,33.808647 206.156036,38.580952 209.281921,45.488014 
	C209.869965,46.787373 211.127792,47.356300 212.409576,47.793503 
	C214.061646,48.357006 215.464966,49.294506 216.027878,50.975185 
	C216.949860,53.727962 219.182236,54.825184 221.387772,56.403374 
	C225.284882,59.191994 226.689621,64.187447 229.689056,67.896881 
	C232.574738,71.465630 234.727859,75.629677 238.720856,78.760117 
	C239.000000,82.361290 239.000000,85.722572 239.000000,89.541931 
z"/>
<path fill="#DCDCDE" opacity="1.000000" stroke="none" 
	d="
M57.766602,1.278790 
	C61.361286,1.000000 64.722572,1.000000 68.541931,1.000000 
	C70.036827,2.129963 71.147560,2.723899 72.755569,1.242068 
	C73.750000,1.000000 74.500000,1.000000 75.625000,1.000000 
	C77.020676,2.013687 77.238625,3.332009 77.300102,4.667568 
	C77.465370,8.257959 78.882568,10.644472 82.802086,11.107015 
	C84.528732,11.310775 86.012917,12.462904 86.519989,14.111183 
	C88.629601,20.968628 94.772972,24.438957 98.919220,29.562737 
	C102.716766,34.255596 109.391396,36.881111 109.953293,44.173019 
	C110.134369,46.522934 112.778366,47.219639 114.933548,48.474106 
	C116.324753,51.927727 116.786331,55.940071 122.287712,54.347107 
	C124.596413,55.624027 126.618645,55.794964 128.774796,54.848061 
	C130.392273,54.137730 132.194733,54.018688 133.440903,55.345455 
	C135.103012,57.115093 135.817062,58.968719 131.910294,59.206486 
	C131.575958,59.961792 131.760315,59.689854 132.246857,59.367065 
	C133.468964,59.517288 134.261826,59.862595 134.379929,61.315105 
	C127.197571,67.195770 119.415924,70.317467 110.509972,66.742371 
	C106.025841,64.942314 100.947433,64.110611 97.487946,59.825298 
	C101.753159,55.288956 102.175552,54.688625 97.643845,50.963238 
	C90.830963,45.362572 85.581383,38.238400 78.599823,32.764191 
	C75.079048,30.003555 74.560341,23.792023 68.687111,23.081804 
	C67.870895,19.254034 64.066574,18.272905 62.000225,15.912405 
	C58.762722,12.214025 55.334908,7.453856 57.766602,1.278790 
z"/>
<path fill="#F9F8F6" opacity="1.000000" stroke="none" 
	d="
M1.253765,115.261917 
	C1.000000,109.645073 1.000000,104.290138 1.000000,98.467606 
	C2.706059,96.877983 3.481533,98.103745 3.968876,99.360382 
	C4.873271,101.692398 6.413557,103.727928 7.227541,106.046394 
	C8.355328,109.258698 10.222865,111.350174 13.484395,112.520538 
	C16.674356,113.665230 18.516552,116.281418 19.088499,119.596634 
	C19.644062,122.816879 21.271601,125.394707 24.235516,126.408470 
	C29.759050,128.297714 31.835140,132.547943 32.635269,137.666107 
	C33.426929,142.730087 36.334286,144.770538 41.547413,144.616333 
	C42.391891,144.529190 42.872536,144.467056 43.712982,144.339935 
	C44.559933,144.242523 45.043583,144.261719 45.861526,144.478851 
	C47.250340,145.333298 47.754120,146.354034 47.805969,147.946655 
	C47.675632,149.162735 47.221554,149.897675 46.648987,150.908447 
	C46.418781,151.490280 46.232052,151.693481 45.953075,151.786758 
	C45.675716,151.879486 45.775204,151.870316 46.408455,151.498993 
	C47.042080,150.702988 47.631496,150.616638 48.577190,150.989075 
	C53.012001,158.497787 56.479389,166.171783 60.456894,173.970520 
	C60.698875,175.103439 60.577183,175.856949 60.184147,176.573898 
	C59.929253,177.038879 59.651478,177.486725 59.337955,177.913345 
	C59.803890,177.496017 60.226871,177.024887 61.146141,176.693268 
	C67.733070,182.232666 72.872696,188.839478 78.499031,195.390961 
	C78.693741,199.346725 80.072456,200.147614 83.222488,197.472000 
	C85.366486,196.705414 87.029236,197.101334 88.858826,198.391602 
	C89.557892,199.418732 89.779770,200.457901 89.070160,200.897751 
	C84.739838,203.581970 85.513855,206.915314 87.601128,210.537537 
	C87.929268,211.107010 87.698158,211.817505 87.225418,212.719055 
	C84.629440,213.000000 82.258888,213.000000 79.444168,213.000000 
	C72.447411,209.557373 68.593552,203.999878 66.512520,197.056137 
	C66.098869,195.675934 65.258148,194.655396 63.830204,194.387161 
	C59.630714,193.598282 58.597973,190.550354 58.812630,186.976074 
	C59.015640,183.595673 58.283138,181.493408 54.659187,180.275406 
	C49.677734,178.601120 45.611828,175.669876 44.254017,169.941956 
	C43.745564,167.797058 42.542477,165.635849 39.765644,165.099472 
	C36.280430,164.426239 34.859978,161.930252 34.784725,158.586777 
	C34.727547,156.046448 34.323612,154.006897 31.119995,153.764923 
	C29.135038,153.615005 27.940973,152.112839 27.140297,150.364746 
	C25.208551,146.147278 22.224600,142.522415 20.526571,138.138031 
	C19.487555,135.455231 18.175682,132.985489 14.504476,132.242920 
	C11.758395,131.687469 11.170155,128.338562 10.864142,125.667992 
	C10.603872,123.396622 9.861209,122.043419 7.313070,121.776268 
	C3.708906,121.398392 3.055772,117.979706 1.253765,115.261917 
z"/>
<path fill="#E1E1E2" opacity="1.000000" stroke="none" 
	d="
M239.000000,183.533142 
	C234.838852,182.882233 231.474823,180.582352 229.046021,177.033295 
	C227.895432,175.352020 226.676315,173.758698 224.795212,172.942688 
	C221.956848,171.711472 220.924316,169.581802 220.961731,166.602707 
	C220.993896,164.041626 218.872421,163.223160 217.309631,161.628265 
	C213.125320,157.357971 207.241898,154.504593 204.979706,148.505890 
	C204.213272,146.473541 202.924057,144.994431 201.144226,144.138641 
	C197.064117,142.176804 194.606445,138.051483 190.276932,136.381775 
	C188.448349,135.676575 189.238220,133.462326 188.965378,131.875748 
	C188.553940,129.483124 189.272003,125.816597 184.501236,128.488831 
	C181.971527,129.905792 181.220200,127.592400 180.983124,125.324554 
	C180.135803,117.219040 174.281815,110.795830 165.706360,108.834610 
	C163.814911,102.873314 165.050903,97.511932 168.848663,92.329643 
	C169.574326,91.716782 170.056778,91.497849 170.982635,91.402649 
	C171.614624,91.486046 171.856812,91.564507 172.404510,91.858414 
	C175.372925,93.727371 177.113571,95.451355 177.901154,99.104034 
	C178.695953,102.790192 182.603043,105.679535 182.887909,110.058693 
	C182.924271,110.617599 182.638153,110.407829 183.121201,110.408455 
	C188.569138,110.415482 190.134537,114.161377 191.310730,118.489532 
	C191.501450,119.191315 192.760040,119.126266 193.590836,119.130653 
	C196.452621,119.145775 197.855301,120.778488 198.119888,123.428787 
	C198.362122,125.855415 199.400818,127.381424 201.848816,128.078766 
	C204.527588,128.841843 206.000412,130.836914 206.122040,133.599304 
	C206.247162,136.441315 206.900757,138.533173 210.397614,138.231445 
	C211.414536,138.143707 212.700821,138.617813 212.938644,139.520538 
	C214.817413,146.651718 223.018799,148.281128 225.884216,155.326218 
	C227.830536,160.111618 232.981201,164.763046 238.741135,167.761444 
	C239.000000,173.022095 239.000000,178.044189 239.000000,183.533142 
z"/>
<path fill="#DED4D5" opacity="1.000000" stroke="none" 
	d="
M19.780720,1.285814 
	C26.687645,1.000000 33.375290,1.000000 40.531467,1.000000 
	C43.718765,5.888489 48.581959,9.200476 50.527042,14.789058 
	C51.536003,17.687994 55.407909,18.460300 57.570908,20.870396 
	C64.774384,28.896782 70.563110,38.006664 77.464722,46.253696 
	C78.533989,47.531410 79.406441,48.970783 80.927986,49.747105 
	C85.140488,51.896397 85.391792,55.099693 83.197922,59.200474 
	C78.877182,61.104900 74.636650,62.093273 70.004028,63.024849 
	C66.780472,62.435036 65.062279,60.780567 64.104912,57.964493 
	C62.747437,53.971508 59.625759,50.998852 57.078087,47.832748 
	C50.448261,39.593563 44.918964,30.499180 37.668621,22.765682 
	C32.470078,17.220718 26.627964,12.286185 21.988522,6.205749 
	C20.908251,4.789949 19.226698,3.717815 19.780720,1.285814 
z"/>
<path fill="#F4F4F4" opacity="1.000000" stroke="none" 
	d="
M239.000000,78.531464 
	C236.234177,79.207451 235.087067,78.135513 233.595718,75.423645 
	C231.728790,72.028770 229.110703,68.774979 226.629868,65.660461 
	C225.293411,63.982628 224.498077,62.001755 223.173965,60.542236 
	C219.447983,56.435184 215.273926,52.732243 211.229584,48.919781 
	C210.781860,48.497746 209.612717,48.530666 209.484100,48.127430 
	C207.796387,42.835690 203.471436,39.608784 199.998505,35.712036 
	C199.591309,35.255150 199.676376,34.200123 199.236908,33.956146 
	C194.980515,31.593149 192.663208,26.696503 188.993515,24.507290 
	C184.310333,21.713455 183.087128,17.629723 181.016617,13.645832 
	C180.344604,12.352838 180.291229,10.274476 178.629150,10.229378 
	C172.620407,10.066341 172.827957,6.016030 173.000000,1.430917 
	C178.022095,1.000000 183.044189,1.000000 188.533142,1.000000 
	C190.478973,4.510031 192.750656,6.865482 196.119843,9.127664 
	C199.314850,11.272880 200.874725,15.983363 203.142181,19.572556 
	C203.745712,20.527918 203.746719,22.099836 204.789841,22.547770 
	C210.676331,25.075552 211.219650,31.345516 214.299896,35.821835 
	C214.573364,36.219215 214.566589,36.995342 214.923538,37.139275 
	C220.257004,39.289940 221.746262,45.672211 226.904846,47.975670 
	C227.995407,48.462646 229.271896,49.022743 229.483688,50.144157 
	C230.431778,55.164219 234.432846,56.301266 238.712921,57.762680 
	C239.000000,64.687645 239.000000,71.375290 239.000000,78.531464 
z"/>
<path fill="#F6F6F6" opacity="1.000000" stroke="none" 
	d="
M239.000000,57.531364 
	C234.104523,57.987907 230.875534,56.980492 228.345428,51.426674 
	C226.727921,47.876110 221.875320,44.856506 218.572540,41.471119 
	C216.629044,39.479015 214.466873,37.934834 212.553238,35.442936 
	C209.794312,31.850348 210.663406,25.303879 204.318130,24.438797 
	C203.741928,24.360241 202.918808,23.239025 202.875839,22.559889 
	C202.564911,17.646494 196.572983,15.771358 196.619278,10.647597 
	C196.628036,9.680317 195.396255,9.067626 194.329010,9.065871 
	C189.244141,9.057511 189.077133,5.482926 189.000061,1.410393 
	C195.021149,1.000000 201.042297,1.000000 207.531723,1.000000 
	C210.985626,7.194870 213.937271,13.406789 220.302521,17.019857 
	C221.351456,17.615257 221.820496,18.735643 222.249542,19.827915 
	C222.552368,20.598795 222.771332,21.803844 223.415527,21.949453 
	C230.241623,23.492367 232.968185,30.286627 238.719269,33.762199 
	C239.000000,41.687576 239.000000,49.375153 239.000000,57.531364 
z"/>
<path fill="#E3DAD2" opacity="1.000000" stroke="none" 
	d="
M19.536816,1.000000 
	C23.638386,7.398846 28.833668,12.488008 34.062531,17.520187 
	C40.876987,24.078321 46.901718,31.324545 51.969902,39.248272 
	C55.106804,44.152580 58.913429,48.490654 62.639977,52.811893 
	C65.189484,55.768250 64.549080,60.846691 69.544327,62.286659 
	C67.873199,65.017769 65.384819,66.931076 61.780518,67.790894 
	C57.540653,68.317650 54.826096,66.731331 52.512192,63.593327 
	C44.744602,53.059303 37.122982,42.425560 28.364275,32.630955 
	C23.869928,27.605059 20.542648,21.574886 16.860842,15.875428 
	C14.350967,11.990128 12.254395,7.731480 8.319335,4.915990 
	C7.230751,4.137120 6.288023,3.143868 6.781693,1.290516 
	C11.024545,1.000000 15.049088,1.000000 19.536816,1.000000 
z"/>
<path fill="#DAD9DA" opacity="1.000000" stroke="none" 
	d="
M83.209442,59.005253 
	C83.560555,55.001297 84.274994,51.568169 79.088501,50.258877 
	C76.648659,49.642956 76.589775,46.082909 74.797691,44.332775 
	C67.672127,37.373993 63.304207,28.199724 56.198761,21.200911 
	C55.127071,20.145304 54.235611,18.911615 52.815823,18.442959 
	C49.948109,17.496357 48.678707,15.397002 48.014023,12.648178 
	C47.540054,10.688056 46.734970,8.939944 44.780102,7.849792 
	C42.453663,6.552431 41.237297,4.416351 41.004929,1.372501 
	C46.354931,1.000000 51.709858,1.000000 57.532394,1.000000 
	C56.419708,6.179571 61.066402,9.787376 61.437416,14.486281 
	C61.467201,14.863517 62.059692,15.490143 62.409996,15.503743 
	C66.959625,15.680373 69.231911,17.872858 69.527954,22.533049 
	C69.617622,23.944593 71.406525,24.101128 72.837502,23.571350 
	C76.199783,22.326563 77.148544,24.259495 76.947769,27.031199 
	C76.736900,29.942097 77.810425,31.737019 80.495384,32.820110 
	C81.531525,33.238079 82.558517,33.978958 83.277344,34.834995 
	C88.268364,40.778774 94.352745,45.618145 99.682205,51.210739 
	C104.431465,56.194504 103.894524,57.813786 96.749664,59.501923 
	C96.451157,59.653725 96.622223,59.685257 97.032272,59.615784 
	C97.503975,59.275475 97.524498,59.066166 97.333733,58.885899 
	C97.153648,58.715736 97.080338,58.829880 96.872566,59.383034 
	C96.435867,59.561241 96.239471,59.585754 95.738853,59.613869 
	C94.555649,59.612850 93.712601,59.827827 92.503769,60.113777 
	C89.189651,60.351364 86.199722,60.941429 83.209442,59.005253 
z"/>
<path fill="#D8D6D7" opacity="1.000000" stroke="none" 
	d="
M232.219299,212.700409 
	C225.978851,213.000000 219.957703,213.000000 213.468277,213.000000 
	C209.904434,211.233673 207.722229,208.755554 205.919113,205.599319 
	C203.449432,201.276245 198.264526,199.450516 195.544235,195.076660 
	C193.865402,192.377304 192.028992,189.966980 191.639771,186.658188 
	C191.171936,182.681320 188.598129,180.019699 185.107468,178.478714 
	C182.327255,177.251343 180.422150,175.443451 179.257080,172.302368 
	C180.364975,166.404587 182.910233,161.495056 186.431824,156.780579 
	C191.385696,161.387390 198.348511,164.240509 198.588959,172.279770 
	C198.642441,174.068069 200.199081,175.069565 201.607254,176.014679 
	C205.329178,178.512711 209.651031,181.300598 211.678223,184.642792 
	C214.965790,190.062988 220.733063,193.034683 223.522736,198.040176 
	C226.285202,202.996887 230.293289,207.129532 232.219299,212.700409 
z"/>
<path fill="#FDFDFC" opacity="1.000000" stroke="none" 
	d="
M59.444164,213.000000 
	C56.092400,207.980301 54.296501,202.011642 47.835880,200.029907 
	C47.253105,199.851151 46.281448,199.269608 46.319363,198.985901 
	C47.002331,193.875366 40.687153,192.045670 40.841152,187.211441 
	C40.854683,186.786636 40.456844,185.996033 40.186031,185.966690 
	C34.274990,185.326569 33.936207,179.190430 31.268993,175.818481 
	C28.715729,172.590576 27.751583,168.437180 22.863661,167.603333 
	C22.447832,167.532379 22.270731,166.201981 21.937098,165.477692 
	C21.388323,164.286331 20.933319,162.182388 20.210711,162.080490 
	C15.239950,161.379517 14.567887,157.354721 12.566654,153.863495 
	C9.549739,148.600372 5.379666,143.998245 1.349874,139.057587 
	C1.000000,133.977905 1.000000,128.955811 1.000000,123.466858 
	C1.397535,122.672348 2.136173,122.336533 2.319685,122.631012 
	C5.272310,127.369102 10.854754,130.694702 10.292116,137.335480 
	C10.006186,140.710297 11.275270,142.758606 14.941973,142.902359 
	C16.292654,142.955322 17.861179,143.420029 18.423380,144.583313 
	C20.691534,149.276520 24.518768,152.569733 28.157980,156.055557 
	C32.421738,160.139587 34.738316,165.946899 39.879452,169.263184 
	C42.292953,170.820007 42.444794,173.816757 44.009075,175.965393 
	C47.203979,180.353745 50.247646,184.924759 53.576923,189.138733 
	C56.565746,192.921783 59.880836,196.568970 63.096680,200.232712 
	C66.301636,203.884064 67.418793,207.838562 67.231110,212.699387 
	C64.629440,213.000000 62.258884,213.000000 59.444164,213.000000 
z"/>
<path fill="#E3E3E5" opacity="1.000000" stroke="none" 
	d="
M172.030670,92.334869 
	C171.670029,91.994827 171.344116,91.994133 170.773926,92.001617 
	C168.183197,90.650055 170.062988,89.525673 171.011780,88.096634 
	C173.319443,87.158157 175.723419,87.018509 176.748291,84.199539 
	C177.757782,83.994499 178.503952,83.996788 179.623230,83.998650 
	C181.115768,86.046997 181.777725,88.341843 182.032806,90.554764 
	C182.411545,93.840775 182.813339,96.433861 187.032791,96.376656 
	C188.635590,96.354927 189.877197,97.823982 189.906555,99.399139 
	C190.016449,105.296524 194.802917,108.276970 197.916718,112.174286 
	C199.930267,114.694496 202.583588,117.098663 205.262497,118.787842 
	C209.400360,121.396957 211.520050,125.002007 213.210709,129.197693 
	C214.120239,131.454865 215.203674,133.311310 218.180511,133.233704 
	C220.534134,133.172318 221.926132,134.839066 222.023636,137.054398 
	C222.176422,140.525864 223.794113,142.424835 227.027573,143.628952 
	C230.386642,144.879868 229.883194,148.581985 231.092896,151.752197 
	C233.541443,150.116089 236.119019,147.948532 238.749084,151.753723 
	C239.000000,157.022095 239.000000,162.044189 239.000000,167.533142 
	C235.692673,167.404388 232.660156,166.466919 230.989105,163.084473 
	C229.942902,160.966812 228.185928,159.386948 226.146698,158.176392 
	C225.725128,157.926117 224.801956,157.807755 224.807419,157.653244 
	C225.114960,148.949905 213.757584,148.644241 212.730377,140.860901 
	C212.536652,139.392929 211.048569,138.730057 209.578506,139.302032 
	C205.483154,140.895416 204.892197,138.481064 205.020706,135.366486 
	C205.169479,131.760803 204.376816,129.061844 200.031647,128.950012 
	C197.285675,128.879349 196.968872,126.915405 196.994797,124.736359 
	C197.030548,121.730766 196.757523,119.229866 192.507019,120.621376 
	C189.734787,121.528938 188.998398,119.534042 189.021240,117.250137 
	C189.055450,113.827560 188.853821,111.125458 184.025742,112.697800 
	C181.644852,113.473175 180.958832,111.284996 181.025970,109.264168 
	C181.126038,106.253532 180.676254,103.597466 177.536316,102.202820 
	C177.102768,102.010254 176.396957,101.505180 176.446365,101.287704 
	C177.381653,97.170517 174.471252,95.056778 172.030670,92.334869 
z"/>
<path fill="#FBFBFB" opacity="1.000000" stroke="none" 
	d="
M67.460632,213.000000 
	C65.541290,208.482605 64.131645,204.259247 61.324551,199.995178 
	C58.184216,195.224915 52.989368,192.576553 50.527264,187.045959 
	C49.032673,183.688660 45.067444,180.458084 43.566410,176.959351 
	C41.090260,171.187744 35.606800,168.385056 32.429726,163.282196 
	C30.223064,159.737961 27.677614,154.826584 22.632759,153.268417 
	C20.865541,152.722580 20.243439,151.357925 19.883759,149.532196 
	C19.168215,145.900101 17.163641,143.567352 12.983714,143.973129 
	C9.918697,144.270645 8.876074,142.541779 8.988875,139.699234 
	C9.168459,135.173828 9.248338,130.745422 4.281170,128.182434 
	C2.483843,127.255035 3.805746,124.219666 1.357811,123.064758 
	C1.000000,120.629440 1.000000,118.258888 1.000000,115.444168 
	C2.761299,115.064972 3.673343,116.026421 4.076816,117.703613 
	C4.450928,119.258751 5.709576,121.042122 6.987933,120.689011 
	C12.772781,119.091133 11.577198,123.053154 12.169136,126.248123 
	C12.650312,128.845276 12.946015,131.607635 17.599438,131.475494 
	C21.048592,131.377563 21.769718,136.750854 22.620218,139.560608 
	C23.966270,144.007477 28.284042,146.506241 28.914183,151.174973 
	C29.070074,152.329956 30.718039,153.301926 32.187599,152.765030 
	C35.469830,151.565842 36.092541,153.458054 35.966553,155.968842 
	C35.735481,160.573715 36.147873,164.077118 42.291832,164.307281 
	C44.896862,164.404846 45.679668,168.558456 46.020206,170.622696 
	C47.145626,177.444733 52.932522,177.969620 57.436367,179.793716 
	C59.851078,180.771683 60.279381,181.314178 60.150581,183.776093 
	C59.931652,187.960663 58.375919,193.403259 65.820366,193.286163 
	C66.354912,193.277771 67.249023,194.323578 67.398514,195.005753 
	C68.928261,201.986511 72.190567,207.728729 78.579651,211.378265 
	C78.797112,211.502472 78.814148,211.977600 78.962296,212.644577 
	C75.307091,213.000000 71.614182,213.000000 67.460632,213.000000 
z"/>
<path fill="#F6F2EF" opacity="1.000000" stroke="none" 
	d="
M1.260819,90.257675 
	C1.000000,82.312424 1.000000,74.624847 1.000000,66.468636 
	C3.969929,64.476913 6.386329,66.414444 7.225022,68.402412 
	C9.719174,74.314331 15.833655,77.982864 17.370907,84.085487 
	C19.199570,91.344971 23.583897,95.681694 29.844267,98.912102 
	C31.587210,99.811462 33.146843,101.411705 33.665516,103.372681 
	C34.785503,107.607109 37.737965,110.530037 40.639011,114.006012 
	C41.762306,118.802147 44.119759,123.020905 42.996590,128.204681 
	C42.223042,130.458298 41.281666,132.069962 38.785767,132.593292 
	C33.344105,130.255219 28.713926,127.971512 28.265753,121.086372 
	C28.032028,117.495735 24.378342,115.020729 21.427626,112.848732 
	C18.676844,110.823921 16.223875,108.778198 15.558588,105.150635 
	C15.142746,102.883217 13.276152,101.554420 11.551970,100.221046 
	C7.849142,97.357506 4.586527,94.038460 1.260819,90.257675 
z"/>
<path fill="#E7DED5" opacity="1.000000" stroke="none" 
	d="
M6.500528,1.000000 
	C8.892616,5.470393 13.427109,7.639905 15.870718,11.955120 
	C22.932798,24.426180 32.190964,35.368893 41.425472,46.354275 
	C45.749130,51.497692 50.207478,56.856873 53.596230,62.745770 
	C55.473763,66.008499 57.974461,66.692772 61.217941,67.428650 
	C61.309555,70.848442 58.641556,71.464584 56.253677,72.784088 
	C48.104454,72.708206 44.157272,66.997810 40.384277,61.539402 
	C36.593845,56.055775 32.630390,50.830425 27.499910,46.551445 
	C24.470232,44.024597 23.877605,39.862679 21.125591,37.139797 
	C13.612393,29.706118 7.951698,20.792166 1.254951,12.251104 
	C1.000000,10.060478 1.258314,8.078413 0.947318,6.190111 
	C0.256630,1.996393 1.573644,0.062846 6.500528,1.000000 
z"/>
<path fill="#E6E6E8" opacity="1.000000" stroke="none" 
	d="
M239.000000,151.562500 
	C236.624756,151.585266 233.432831,147.967819 232.688721,153.830597 
	C232.512299,155.220673 231.077454,154.522293 230.456909,153.684158 
	C229.334747,152.168503 228.933914,150.421066 228.965866,148.510696 
	C229.007980,145.990341 227.678711,144.207550 225.176498,144.099457 
	C221.345825,143.933975 221.030060,141.441910 221.013077,138.619492 
	C220.994202,135.484451 220.500214,133.138718 216.404434,134.688385 
	C214.696335,135.334656 213.452271,134.419907 213.111633,132.642395 
	C211.466644,124.058296 204.201553,120.148254 198.695221,114.621819 
	C194.622162,110.533882 188.882263,107.149529 188.931900,100.061714 
	C188.947556,97.825912 187.619934,96.508995 185.318375,97.432907 
	C182.901749,98.402985 181.676849,97.299583 181.309128,95.262733 
	C180.680740,91.782173 180.412186,88.236649 179.994415,84.358315 
	C179.996338,83.998222 180.000000,84.000000 179.999695,83.998436 
	C180.240311,83.793312 180.469406,83.577225 180.845520,83.173676 
	C186.234818,81.686279 187.466782,82.414742 187.936035,87.864784 
	C188.208679,91.031464 189.355133,92.802185 192.672607,93.031464 
	C196.977478,93.328987 196.778778,97.730759 198.807663,100.108940 
	C199.384857,100.785477 199.185379,102.675270 199.663071,102.802406 
	C205.641373,104.393333 206.906387,111.167732 212.143188,113.789925 
	C215.915024,115.678574 217.110001,120.370178 218.861176,124.052734 
	C220.273682,127.023148 220.985138,130.036865 225.030243,130.054718 
	C226.551575,130.061432 226.597549,131.287384 227.095947,132.368469 
	C228.953033,136.396744 233.610001,138.580612 234.279663,143.561874 
	C234.471268,144.987091 236.665955,145.066299 238.604492,144.999390 
	C239.000000,147.041672 239.000000,149.083328 239.000000,151.562500 
z"/>
<path fill="#F2EDE9" opacity="1.000000" stroke="none" 
	d="
M41.229263,113.954544 
	C37.154297,113.364304 34.695438,110.286522 33.893024,107.244057 
	C32.272465,101.099457 27.773796,98.438568 22.879892,96.018997 
	C19.695099,94.444420 17.874956,92.349915 17.989374,88.725082 
	C18.086359,85.652634 16.202290,82.766586 14.409585,81.330643 
	C9.059388,77.045197 9.306673,68.270203 1.358194,66.035660 
	C1.000000,61.310745 1.000000,56.621487 1.000000,51.466118 
	C4.079903,49.562256 5.629099,52.134766 7.221225,53.720238 
	C12.682003,59.158199 18.707499,64.044151 21.878817,71.551521 
	C23.776766,76.044479 29.387346,78.056511 31.031931,83.073380 
	C31.335558,83.999603 32.232845,84.758583 32.392414,85.706146 
	C33.129158,90.081070 36.022427,91.656853 40.054840,92.051781 
	C41.526470,92.195915 42.956326,92.739868 44.364948,94.055931 
	C44.716110,100.991798 42.255287,107.186745 41.229263,113.954544 
z"/>
<path fill="#DCD2D3" opacity="1.000000" stroke="none" 
	d="
M179.554504,171.803772 
	C181.550964,174.172882 182.829117,176.419739 186.189667,177.498962 
	C189.487000,178.557861 192.628784,181.696609 192.811188,185.574509 
	C193.130905,192.371841 197.742004,196.335068 202.071060,200.133560 
	C204.571152,202.327255 206.938049,204.082428 208.321472,207.285690 
	C209.172638,209.256516 211.330536,210.662964 212.950851,212.661407 
	C206.645599,213.000000 200.291214,213.000000 193.468414,213.000000 
	C186.803482,204.618958 180.478256,196.355194 171.196716,191.054749 
	C169.707382,190.204224 169.353836,188.809906 168.748276,187.084503 
	C171.575211,181.350082 175.184219,176.439041 179.554504,171.803772 
z"/>
<path fill="#E1E1E2" opacity="1.000000" stroke="none" 
	d="
M115.187080,48.811203 
	C110.396599,48.835743 108.051834,46.483593 108.049698,42.098919 
	C108.048553,39.746910 106.680702,38.818710 105.105659,37.415794 
	C100.651688,33.448582 96.512550,29.111183 92.449066,24.734247 
	C91.451187,23.659388 90.852455,22.226913 89.339424,21.686512 
	C86.797424,20.778603 85.739601,19.029577 85.947609,16.308716 
	C86.107346,14.219225 84.793259,12.259156 82.966042,12.280017 
	C75.032944,12.370585 76.211861,6.729570 76.000000,1.435774 
	C80.024544,1.000000 84.049088,1.000000 88.536819,1.000000 
	C93.581657,3.409256 96.651627,6.779788 98.480736,11.924812 
	C100.097679,16.473036 104.834396,18.946123 108.563560,21.915590 
	C111.222778,24.033091 113.856819,26.022898 114.196457,29.737720 
	C114.360741,31.534704 115.253265,32.409203 117.119957,32.357502 
	C119.004257,32.305313 120.293350,33.189240 120.790062,35.464401 
	C120.679306,37.150719 120.143799,38.247524 118.715126,39.159958 
	C117.897339,38.790218 118.443542,39.518650 117.955284,39.073746 
	C117.627106,38.774693 117.689537,38.244331 117.243088,38.062023 
	C117.443573,38.357510 117.551208,38.682560 117.695847,39.391666 
	C118.498962,43.072666 117.642799,46.010418 115.187080,48.811203 
z"/>
<path fill="#FBFBFB" opacity="1.000000" stroke="none" 
	d="
M239.000000,33.531342 
	C235.228638,34.221756 232.435989,33.079296 231.986725,28.831989 
	C231.732086,26.424545 229.952271,26.297697 228.123123,25.814411 
	C224.796814,24.935560 221.136856,24.227390 220.907852,19.615282 
	C220.885849,19.172009 220.561020,18.416634 220.271881,18.362083 
	C214.517090,17.276352 213.718384,11.114124 209.783585,8.199776 
	C207.514114,6.518866 208.071838,4.097599 208.000000,1.414430 
	C217.434570,1.000000 226.871552,1.115699 236.302094,0.920995 
	C238.747910,0.870499 239.096024,1.516786 239.062469,3.766781 
	C238.916794,13.530219 239.000000,23.297071 239.000000,33.531342 
z"/>
<path fill="#F0E9E3" opacity="1.000000" stroke="none" 
	d="
M44.221268,93.765564 
	C41.655811,93.622261 39.355690,93.383522 37.134186,92.829521 
	C34.417007,92.151901 32.604820,91.227249 31.628550,87.666962 
	C30.491978,83.522079 28.679083,78.906647 24.184593,76.459007 
	C22.275408,75.419289 21.064100,73.522636 20.233831,71.488365 
	C16.535530,62.427021 8.885980,56.960697 1.349715,51.035381 
	C1.000000,45.977909 1.000000,40.955814 1.000000,35.466862 
	C4.733440,33.750031 6.365499,36.545605 8.120711,38.841362 
	C15.556118,48.566635 23.085375,58.189899 31.226429,67.367210 
	C34.838837,71.439438 39.665684,75.387932 38.628029,82.287834 
	C38.272339,84.653030 40.706406,85.452393 42.937302,84.255363 
	C44.514763,83.408958 45.821812,81.891426 48.152489,82.959099 
	C49.302399,87.486015 46.118435,90.209053 44.221268,93.765564 
z"/>
<path fill="#DAD9DA" opacity="1.000000" stroke="none" 
	d="
M232.497910,213.000000 
	C228.124832,208.138565 224.432724,203.181000 221.842941,197.451141 
	C221.109070,195.827454 219.218063,194.977982 217.522034,194.251099 
	C215.944809,193.575119 214.187378,192.534836 213.842651,191.085312 
	C212.003906,183.353821 204.733521,180.982468 199.716599,176.447418 
	C197.934052,174.836060 196.818100,173.253647 197.041168,170.981873 
	C197.340088,167.937500 195.995667,165.834152 193.579453,164.364609 
	C190.647888,162.581604 188.808380,159.888748 186.969849,156.558838 
	C191.235397,156.649292 190.694672,152.923615 191.553238,150.348938 
	C193.997726,151.439072 195.136154,152.918900 195.032379,155.407883 
	C194.936951,157.696457 195.789230,160.349442 197.722427,160.930847 
	C202.340576,162.319763 203.338120,165.878235 204.414902,169.687119 
	C204.731506,170.806976 205.539276,172.348999 206.593399,172.154312 
	C211.244492,171.295349 210.935059,175.268433 212.305054,177.619202 
	C212.803986,178.475327 213.118958,179.737183 213.865891,180.102692 
	C219.448685,182.834595 221.673096,189.459274 227.567581,191.788025 
	C228.663269,192.220871 229.828629,192.923737 229.840408,194.205460 
	C229.892746,199.906418 234.026886,200.432907 238.595520,200.991913 
	C239.000000,202.946396 238.733047,204.937744 239.051758,206.830475 
	C239.893570,211.829666 238.410416,214.272812 232.497910,213.000000 
z"/>
<path fill="#ECE5DD" opacity="1.000000" stroke="none" 
	d="
M48.758461,83.061127 
	C46.795967,82.951561 45.140945,83.418182 44.398907,84.681747 
	C42.349632,88.171272 40.260086,85.998222 38.114902,85.039360 
	C35.071541,83.679047 36.850834,82.032425 37.672745,80.255089 
	C38.030312,79.481857 37.995907,77.817413 37.502918,77.475433 
	C34.176460,75.167854 33.919342,70.606323 30.777748,68.350166 
	C24.822512,64.073387 22.195358,56.988960 16.986847,52.228657 
	C11.271331,47.004978 8.857182,38.933773 1.352973,35.036476 
	C1.000000,31.638712 1.000000,28.277426 1.000000,24.458069 
	C3.048722,22.638737 3.997205,24.362972 5.070330,25.516521 
	C15.308307,36.521770 24.695200,48.232716 33.932037,60.080093 
	C37.468346,64.615837 42.520367,67.859253 45.250553,73.161285 
	C45.933079,74.486755 47.457802,74.449585 49.151768,73.774124 
	C49.717457,73.598717 49.950459,73.546257 50.544044,73.501678 
	C51.626324,73.668983 52.259090,74.006264 53.050098,74.756821 
	C53.218407,78.389641 51.479649,80.853745 48.758461,83.061127 
z"/>
<path fill="#F7F6F3" opacity="1.000000" stroke="none" 
	d="
M1.000000,90.444168 
	C6.969184,95.064095 14.828213,98.300873 17.155666,106.883163 
	C17.658184,108.736153 19.268492,109.779816 20.743599,110.879372 
	C25.511150,114.433151 30.534922,117.741211 30.209064,124.870293 
	C30.122801,126.757591 31.720318,128.229370 33.633873,128.725433 
	C35.336361,129.166763 36.705708,129.924500 37.845024,131.687073 
	C40.647865,133.856934 40.432034,138.156036 44.420967,139.327911 
	C46.201820,140.844925 46.844570,142.449310 46.115143,144.712845 
	C45.435886,145.002716 45.024693,145.001740 44.305107,145.000900 
	C43.791168,145.238739 43.564129,145.453766 43.159630,145.821503 
	C34.136593,145.971176 33.662403,145.732147 31.324051,137.472855 
	C30.085588,133.098465 29.087555,129.130753 23.701876,127.633278 
	C20.425680,126.722343 17.899353,124.035057 17.879389,119.802856 
	C17.867189,117.216827 16.380722,114.555191 13.800651,114.041862 
	C6.215179,112.532669 6.190920,105.362373 3.107187,100.509941 
	C2.625874,99.752563 2.927114,98.506386 1.356455,98.064163 
	C1.000000,95.629440 1.000000,93.258888 1.000000,90.444168 
z"/>
<path fill="#EBE2DA" opacity="1.000000" stroke="none" 
	d="
M50.250450,73.822678 
	C47.811176,77.009590 45.656651,76.826538 43.912182,73.694588 
	C41.717049,69.753548 39.151020,66.331909 35.339279,63.660858 
	C31.503389,60.972885 30.684937,55.730251 27.129326,52.609627 
	C18.179157,44.754410 12.721162,33.863190 3.957237,25.828173 
	C3.235041,25.166042 2.753793,24.272499 1.345594,24.036419 
	C1.000000,20.307091 1.000000,16.614182 1.000000,12.460636 
	C4.251264,12.687619 6.190299,15.061289 7.318444,17.809772 
	C10.543420,25.666733 18.480253,29.767067 22.368589,36.954556 
	C27.589441,46.605175 37.435425,52.540070 42.296318,62.444984 
	C43.970200,65.855804 47.911598,67.361496 49.859344,70.822868 
	C50.507149,71.974098 53.690269,71.698692 56.069801,72.113319 
	C56.800095,74.230759 55.865444,75.274391 53.462418,75.239395 
	C52.521420,74.861031 51.940411,74.684410 51.178993,74.256638 
	C50.832024,73.882393 50.665470,73.759300 50.250450,73.822678 
z"/>
<path fill="#E6E6E8" opacity="1.000000" stroke="none" 
	d="
M102.770882,1.286503 
	C108.688042,1.000000 114.376083,1.000000 120.532059,1.000000 
	C123.741096,3.364455 126.194855,6.054262 129.159012,8.168539 
	C129.828278,8.645909 130.664749,9.238474 130.793457,9.974295 
	C131.481934,13.909765 134.167343,16.235353 137.279968,18.687546 
	C133.802460,23.416233 129.763062,27.235405 124.298347,29.810724 
	C122.395172,29.474651 120.646614,28.832407 120.769691,27.164900 
	C121.048088,23.393263 118.575539,21.463095 116.267876,19.351673 
	C111.888206,15.344468 109.324707,9.660573 104.084602,6.405129 
	C102.520653,5.433516 101.773819,3.594606 102.770882,1.286503 
z"/>
<path fill="#E4E4E6" opacity="1.000000" stroke="none" 
	d="
M102.535355,1.000000 
	C102.893684,2.740928 103.143074,4.759033 104.603073,5.500276 
	C111.806374,9.157421 114.089378,17.682615 120.921234,21.673319 
	C122.399200,22.536648 122.272171,24.403141 121.853676,25.791443 
	C121.310547,27.593178 122.265991,28.190317 123.830444,28.926991 
	C125.037453,32.368027 122.826134,34.207512 120.402771,36.095131 
	C119.824379,34.435040 119.255783,32.773727 117.302155,33.463436 
	C113.674095,34.744289 112.791794,33.233215 112.983711,29.975882 
	C113.195045,26.388924 110.470184,24.736828 108.024612,23.084894 
	C106.385391,21.977633 104.988625,20.569298 103.485405,19.460835 
	C99.196823,16.298462 96.581955,12.353574 95.095184,7.347936 
	C94.233261,4.446039 90.399200,4.333213 89.050133,1.341818 
	C93.356903,1.000000 97.713799,1.000000 102.535355,1.000000 
z"/>
<path fill="#F0E9E3" opacity="1.000000" stroke="none" 
	d="
M142.227051,212.711655 
	C136.645065,213.000000 131.290146,213.000000 125.467606,213.000000 
	C123.518974,209.126770 121.260910,206.044067 117.693596,203.606766 
	C113.677376,200.862762 113.167412,196.663986 115.180817,191.851288 
	C117.934464,188.881531 120.849144,189.605042 124.137177,190.833511 
	C125.118286,190.874313 124.696632,192.767242 126.135666,191.529022 
	C131.706558,191.309113 136.263565,193.155945 140.507996,196.646606 
	C140.560913,200.269302 138.305405,200.777466 135.392426,200.826492 
	C134.746384,200.596848 134.477585,200.416534 134.240112,200.196945 
	C134.001556,199.976349 133.768097,199.751053 133.530167,199.531403 
	C133.640839,199.750793 133.891281,199.826096 134.248779,200.264374 
	C135.515137,203.329651 136.980682,205.713745 139.798141,207.238144 
	C141.674500,208.253387 143.294281,209.817322 142.227051,212.711655 
z"/>
<path fill="#E1D7CF" opacity="1.000000" stroke="none" 
	d="
M168.623535,186.915344 
	C176.496811,192.351166 182.901062,198.894913 189.151382,205.616531 
	C190.960052,207.561554 192.866074,209.374207 192.995239,212.629395 
	C187.977905,213.000000 182.955811,213.000000 177.466858,213.000000 
	C174.532745,208.602737 171.172241,205.088913 167.146393,202.012329 
	C164.239059,199.790512 162.098785,196.746857 162.975449,192.262604 
	C164.055908,189.456772 165.946991,187.930084 168.623535,186.915344 
z"/>
<path fill="#F2EDE9" opacity="1.000000" stroke="none" 
	d="
M115.593552,191.554504 
	C113.992622,198.160934 116.116821,202.474503 122.247299,205.252121 
	C124.948257,206.475876 125.120346,209.452957 125.000107,212.595215 
	C118.978844,213.000000 112.957695,213.000000 106.468269,213.000000 
	C103.309166,210.261658 100.568565,207.524582 100.706337,203.276642 
	C100.803001,200.296188 96.312363,201.452866 96.597733,198.103409 
	C102.177223,193.549942 108.304634,191.256058 115.593552,191.554504 
z"/>
<path fill="#F7F6F3" opacity="1.000000" stroke="none" 
	d="
M96.675308,197.801331 
	C101.858398,199.441101 102.198105,203.500900 102.920540,207.526611 
	C103.244705,209.333023 106.319366,209.747543 105.994759,212.620575 
	C99.978844,213.000000 93.957695,213.000000 87.468269,213.000000 
	C86.823006,212.050552 86.882439,210.966675 86.431236,210.173141 
	C83.112114,204.335876 83.352310,203.168335 88.936920,199.321686 
	C91.209984,197.251984 93.679855,196.866379 96.675308,197.801331 
z"/>
<path fill="#E3DAD2" opacity="1.000000" stroke="none" 
	d="
M163.731567,191.943512 
	C163.592941,196.136536 165.301605,198.836136 168.403015,201.454987 
	C171.891281,204.400513 176.646393,206.670288 176.999634,212.617981 
	C172.643097,213.000000 168.286194,213.000000 163.464645,213.000000 
	C161.085312,210.932175 158.722672,209.401321 156.587372,207.601852 
	C154.234177,205.618744 151.521530,203.666199 152.345306,199.562958 
	C153.524521,197.462067 156.564560,199.447571 157.296768,196.502991 
	C157.605560,196.083237 157.753815,195.934647 158.178833,195.702606 
	C158.949951,195.642868 159.828186,196.264404 159.535583,194.654663 
	C160.451401,192.851135 161.732605,191.992264 163.731567,191.943512 
z"/>
<path fill="#E9E9EA" opacity="1.000000" stroke="none" 
	d="
M137.731201,19.187422 
	C133.219803,17.739130 130.451065,15.520597 129.751587,10.622508 
	C129.494308,8.820921 126.175163,7.528835 124.401474,5.847345 
	C123.118591,4.631140 121.516518,3.602319 121.033722,1.345525 
	C126.354927,1.000000 131.709854,1.000000 137.532394,1.000000 
	C137.875656,4.082813 138.470215,7.236038 137.050232,10.602457 
	C138.418396,12.898107 140.725647,14.232173 140.645813,17.356564 
	C140.032837,18.701448 139.134888,19.073742 137.731201,19.187422 
z"/>
<path fill="#EBE2DA" opacity="1.000000" stroke="none" 
	d="
M153.132324,198.578323 
	C152.475052,203.803375 156.108826,205.856232 159.266693,208.027740 
	C160.943863,209.181030 162.503326,210.174789 162.964447,212.644592 
	C158.643097,213.000000 154.286194,213.000000 149.464645,213.000000 
	C147.056961,210.903061 146.192581,208.175354 144.792236,205.761581 
	C143.060471,202.776550 144.749084,200.415985 146.706024,197.808289 
	C148.592072,196.668274 150.242096,196.640869 152.314774,197.321320 
	C152.879639,197.731873 153.063293,197.949402 153.132324,198.578323 
z"/>
<path fill="#ECE5DD" opacity="1.000000" stroke="none" 
	d="
M146.903183,198.056870 
	C142.307724,203.751755 148.763351,207.550354 148.994598,212.621552 
	C146.958328,213.000000 144.916672,213.000000 142.437500,213.000000 
	C142.302765,209.926758 140.316422,208.487183 137.909119,207.474991 
	C134.892426,206.206528 133.570099,204.044739 134.000153,200.402313 
	C136.289810,199.960632 138.685577,200.185379 139.989807,197.214432 
	C140.800751,196.138748 141.655640,196.222504 142.805374,196.672363 
	C143.641052,197.339615 144.220993,197.818314 145.362793,197.487244 
	C146.067627,197.447586 146.450806,197.562271 146.903183,198.056870 
z"/>
<path fill="#E1E1E2" opacity="1.000000" stroke="none" 
	d="
M72.600006,1.000000 
	C72.948380,2.203437 72.583405,3.369354 71.328964,3.626316 
	C69.973633,3.903944 69.362144,2.866976 69.034393,1.337154 
	C70.066673,1.000000 71.133339,1.000000 72.600006,1.000000 
z"/>
<path fill="#060606" opacity="1.000000" stroke="none" 
	d="
M137.147781,19.423048 
	C138.088577,18.872908 138.819946,18.604879 139.775085,18.139057 
	C140.422043,17.548506 140.845413,17.156078 141.729996,17.052391 
	C143.449265,16.713055 144.876846,16.348280 146.310913,16.011051 
	C151.756409,14.730499 152.215622,15.183700 151.431000,21.425386 
	C150.858826,24.064680 150.272644,26.298643 149.632721,28.874893 
	C150.061111,31.578997 149.115189,33.587769 147.857605,35.895515 
	C141.890030,45.351315 134.776596,52.837101 123.353699,55.225189 
	C122.843666,55.095245 122.674408,55.054504 122.520454,55.086792 
	C115.564445,56.545624 115.564606,56.546379 114.954254,49.425514 
	C115.845818,46.021645 118.102234,43.468601 117.463928,39.863281 
	C117.124207,39.384895 117.178848,39.111511 117.231575,39.256310 
	C119.751801,40.369419 118.890404,37.733604 119.965408,36.506363 
	C121.350151,33.956413 122.680588,31.850634 124.075226,29.399633 
	C128.725464,26.375700 131.949173,21.831989 137.147781,19.423048 
z"/>
<path fill="#E6E6E8" opacity="1.000000" stroke="none" 
	d="
M142.011322,16.648762 
	C141.541214,17.364531 141.063705,17.663885 140.292542,17.952251 
	C140.806259,15.008311 136.491867,14.546591 137.006897,11.380064 
	C141.032303,10.486245 142.442154,12.474428 142.011322,16.648762 
z"/>
<path fill="#010101" opacity="1.000000" stroke="none" 
	d="
M147.422699,198.292969 
	C146.554367,198.259216 146.113083,198.164734 145.333939,198.123718 
	C144.529297,198.465668 144.034775,198.525803 143.310059,198.025101 
	C142.308777,197.409866 141.509933,197.127045 140.381195,196.845459 
	C135.812164,194.721710 131.348679,193.220383 126.374290,192.097702 
	C125.809853,192.208389 125.631630,192.287125 125.225769,192.182556 
	C122.275963,190.676514 119.413452,191.173767 116.255653,191.560455 
	C109.249832,191.960403 103.751762,195.839905 97.296593,197.882553 
	C94.596291,198.319305 92.194740,198.547424 89.396935,198.867798 
	C87.234184,198.500061 85.467690,198.040100 83.312134,197.502686 
	C81.127884,198.948105 80.221275,197.262863 79.008110,196.021408 
	C71.986954,190.578552 66.670410,183.989655 61.451958,176.855499 
	C60.488129,176.517700 60.405319,175.964584 60.165871,175.183838 
	C55.859547,167.290939 51.659325,159.652802 48.180038,151.272736 
	C47.486046,150.616638 47.176613,150.144501 47.119843,149.244583 
	C46.816772,147.840973 46.504372,146.727753 46.019524,145.309113 
	C45.493980,143.465988 45.140881,141.928268 44.567608,140.131271 
	C41.504780,137.016403 41.793880,133.416367 41.950119,129.432648 
	C41.660511,124.347450 41.384609,119.674278 41.025925,114.627106 
	C41.635727,107.719788 41.878750,101.116905 43.937084,94.399055 
	C45.343189,90.617477 46.765305,87.234192 48.298134,83.493515 
	C49.894688,80.654793 51.380531,78.173454 52.984402,75.364883 
	C54.611931,74.932404 55.268757,73.689423 56.289497,72.450996 
	C57.951630,70.833771 59.477978,69.516396 61.191795,67.965393 
	C64.175873,66.380974 66.096741,63.591797 69.597282,62.667183 
	C73.928604,60.990936 77.849373,59.162991 82.608643,58.761322 
	C86.352562,58.813026 89.701736,58.978298 93.507347,59.122673 
	C94.560028,59.058601 95.130219,59.148914 95.916000,59.580650 
	C96.169518,59.727856 96.434731,59.518291 96.329216,59.386269 
	C96.316895,59.060501 96.410095,58.866760 96.404755,58.980083 
	C96.306221,59.287148 96.311195,59.456944 96.295639,59.539566 
	C97.968361,60.268890 99.802551,60.675930 101.321472,61.600761 
	C112.044151,68.129524 122.784950,67.879135 133.902405,61.765991 
	C134.164810,60.983761 134.416718,60.543877 135.317551,60.093357 
	C136.747589,59.633808 137.838058,59.473335 139.252991,58.915695 
	C144.092102,57.305176 148.628342,57.266071 153.621063,58.021416 
	C163.989639,59.288265 172.755569,62.899071 179.849823,70.234283 
	C185.510803,76.087532 185.582245,76.075562 179.220963,80.828117 
	C178.560608,81.321472 177.928528,81.852684 177.137054,82.671600 
	C175.946228,84.859100 175.272949,87.087914 172.480896,87.785141 
	C171.713791,89.118690 169.672668,89.474243 170.568207,91.660126 
	C166.231476,96.464310 166.068588,102.307899 165.237518,108.345734 
	C163.908646,125.262405 170.957993,137.753983 184.123245,146.870651 
	C187.729599,149.367966 188.618439,151.538513 186.930527,155.607651 
	C186.923752,156.001404 186.690659,156.146530 186.709351,156.282532 
	C184.485229,161.310165 182.242416,166.201797 179.955963,171.444031 
	C176.411758,176.688751 173.694839,182.147552 169.173889,186.718323 
	C167.279846,188.343903 165.506973,189.625198 164.182892,191.828217 
	C162.810608,192.922379 161.591736,193.713455 160.189514,194.760162 
	C159.870056,195.221741 159.733978,195.427673 159.227631,195.636826 
	C158.857376,195.640045 158.375854,195.751755 158.188782,195.913269 
	C157.053116,197.764038 155.516342,198.167374 153.375916,198.053360 
	C151.296906,198.129822 149.573349,198.181030 147.422699,198.292969 
z"/>
<path fill="#E3E3E5" opacity="1.000000" stroke="none" 
	d="
M154.022858,57.794403 
	C149.300720,58.755760 144.567352,59.371574 139.411987,59.974937 
	C138.077866,59.671406 137.214951,59.646385 136.247833,60.655602 
	C135.604675,61.072464 135.214066,61.256927 134.506958,61.511303 
	C133.794800,60.435474 132.914597,60.037754 131.390656,60.010048 
	C130.211594,58.062775 130.211594,58.062775 134.045837,57.819870 
	C132.961090,55.154564 131.315720,54.827850 128.933136,56.000652 
	C127.042549,56.931274 125.011047,58.013432 123.082550,55.459984 
	C132.562469,51.108017 140.789566,45.482826 146.356415,36.077599 
	C147.122375,35.561619 147.672363,35.454418 148.629242,35.783150 
	C148.564484,42.323582 147.250671,48.824802 153.102386,53.701530 
	C154.250198,54.658081 153.961411,56.135014 154.022858,57.794403 
z"/>
<path fill="#DCDCDE" opacity="1.000000" stroke="none" 
	d="
M172.577942,88.057571 
	C173.097946,85.956932 174.998260,84.798897 176.682068,83.084114 
	C176.998154,83.146034 177.005554,83.315208 177.012283,83.738297 
	C176.634415,86.350746 177.216446,89.666756 172.577942,88.057571 
z"/>
<path fill="#EEEEEE" opacity="1.000000" stroke="none" 
	d="
M148.998581,36.005783 
	C148.465851,35.987686 147.935974,35.963463 147.009445,35.907658 
	C147.451492,33.851719 148.290192,31.827358 149.353943,29.510090 
	C150.094315,30.607470 151.474579,31.802208 150.272888,33.762001 
	C149.545456,34.442757 149.480911,35.015564 149.221649,35.794872 
	C149.011597,35.995941 149.001434,35.999660 148.998581,36.005783 
z"/>
<path fill="#E3E3E5" opacity="1.000000" stroke="none" 
	d="
M149.258362,35.997227 
	C149.175781,35.442421 149.339981,34.888905 149.749329,34.170822 
	C149.996887,34.448959 149.999252,34.891651 150.000122,35.668091 
	C149.998627,36.001831 149.505112,35.998512 149.258362,35.997227 
z"/>
<path fill="#E3E3E5" opacity="1.000000" stroke="none" 
	d="
M180.782974,83.104485 
	C180.902893,83.322563 180.714920,83.584198 180.219910,83.890266 
	C180.097672,83.670967 180.285080,83.408745 180.782974,83.104485 
z"/>
<path fill="#E3E3E5" opacity="1.000000" stroke="none" 
	d="
M150.000916,35.999268 
	C150.124359,36.142414 150.246887,36.286293 150.369415,36.430176 
	C150.282303,36.380699 150.195190,36.331223 150.053345,36.141788 
	C149.998627,36.001831 150.000000,36.000000 150.000916,35.999268 
z"/>
<path fill="#EEEEEE" opacity="1.000000" stroke="none" 
	d="
M173.466843,58.448975 
	C173.524002,58.414501 173.409683,58.483448 173.466843,58.448975 
z"/>
<path fill="#DAD9DA" opacity="1.000000" stroke="none" 
	d="
M106.986923,59.539692 
	C106.095963,59.036900 105.999283,58.409760 106.407967,57.801311 
	C106.742676,57.302986 107.285103,57.306271 107.607658,57.816116 
	C107.998337,58.433659 107.893661,59.059406 106.986923,59.539692 
z"/>
<path fill="#DAD9DA" opacity="1.000000" stroke="none" 
	d="
M103.864403,59.297829 
	C104.662910,59.652950 104.349174,60.017136 103.985771,60.262611 
	C103.855995,60.350277 103.528107,60.144646 103.290642,60.072884 
	C103.409691,59.825207 103.528740,59.577534 103.864403,59.297829 
z"/>
<path fill="#E3E3E5" opacity="1.000000" stroke="none" 
	d="
M131.001862,60.002365 
	C130.908005,60.038761 130.812302,60.072792 130.855988,60.051636 
	C130.995407,59.996452 131.000000,60.000000 131.001862,60.002365 
z"/>
<path fill="#F7F6F3" opacity="1.000000" stroke="none" 
	d="
M78.548035,195.801208 
	C80.117043,196.136658 81.314346,196.595840 82.717361,197.240128 
	C82.845741,198.644333 83.493233,200.388290 81.764244,200.693085 
	C79.737633,201.050339 78.111732,199.411194 76.744888,198.292435 
	C75.588089,197.345581 77.291138,196.525558 78.548035,195.801208 
z"/>
<path fill="#FBFBFB" opacity="1.000000" stroke="none" 
	d="
M59.896240,175.247894 
	C60.375679,175.340286 60.730965,175.731979 61.124367,176.395599 
	C60.683769,177.309250 60.538048,178.810257 59.389591,178.019760 
	C58.530796,177.428619 59.387688,176.355804 59.896240,175.247894 
z"/>
<path fill="#F2F2F2" opacity="1.000000" stroke="none" 
	d="
M46.845573,149.150818 
	C47.414371,149.440262 47.699577,149.926315 47.963097,150.709366 
	C47.463066,151.268600 46.984726,151.530853 46.252510,151.895935 
	C46.186413,151.114990 46.374199,150.231216 46.845573,149.150818 
z"/>
<path fill="#F2F2F2" opacity="1.000000" stroke="none" 
	d="
M42.529152,148.394073 
	C42.296947,147.578140 42.582451,147.283508 43.215542,147.408112 
	C43.347408,147.434067 43.525616,147.619278 43.545628,147.751801 
	C43.642105,148.390488 43.331760,148.659607 42.529152,148.394073 
z"/>
<path fill="#F2F2F2" opacity="1.000000" stroke="none" 
	d="
M46.000542,152.000610 
	C45.906780,152.036407 45.812481,152.071609 45.858406,152.052795 
	C45.998627,151.998779 46.000000,152.000000 46.000542,152.000610 
z"/>
<path fill="#F2F2F2" opacity="1.000000" stroke="none" 
	d="
M43.222893,145.890869 
	C43.101868,145.674316 43.287251,145.413712 43.778263,145.108093 
	C43.900505,145.325012 43.715637,145.586273 43.222893,145.890869 
z"/>
<path fill="#DCDCDE" opacity="1.000000" stroke="none" 
	d="
M96.067596,59.411755 
	C95.546204,59.636547 94.922890,59.545242 94.131676,59.277855 
	C94.628319,58.200871 95.295189,58.057053 96.067596,59.411755 
z"/>
<path fill="#DCDCDE" opacity="1.000000" stroke="none" 
	d="
M96.608307,59.285271 
	C96.306221,59.287148 96.276146,59.292660 96.249924,59.273449 
	C96.561195,59.165802 96.898682,59.077366 97.236176,58.988930 
	C97.127579,59.087086 97.018982,59.185238 96.608307,59.285271 
z"/>
<path fill="#E1E1E2" opacity="1.000000" stroke="none" 
	d="
M171.997986,91.997444 
	C172.091202,91.960808 172.186432,91.926727 172.143356,91.948280 
	C172.005035,92.003906 172.000000,92.000000 171.997986,91.997444 
z"/>
<path fill="#F2F2F2" opacity="1.000000" stroke="none" 
	d="
M41.677940,129.214325 
	C42.716354,132.363693 43.496300,135.706757 44.311840,139.460907 
	C38.794956,140.536575 39.997070,135.266083 38.039841,132.369080 
	C39.853409,132.076355 40.625294,130.727493 41.677940,129.214325 
z"/>
<path fill="#E1D7CF" opacity="1.000000" stroke="none" 
	d="
M173.467346,187.449692 
	C173.523193,187.416229 173.411484,187.483154 173.467346,187.449692 
z"/>
<path fill="#D8D6D7" opacity="1.000000" stroke="none" 
	d="
M117.417412,39.401539 
	C117.229660,39.674492 117.154411,39.620319 117.111984,39.639297 
	C117.217484,39.109810 117.365395,38.561344 117.513313,38.012875 
	C117.543930,38.384777 117.574547,38.756683 117.417412,39.401539 
z"/>
<path fill="#DCDCDE" opacity="1.000000" stroke="none" 
	d="
M192.467484,153.448944 
	C192.523483,153.415314 192.411484,153.482574 192.467484,153.448944 
z"/>
<path fill="#E7DED5" opacity="1.000000" stroke="none" 
	d="
M50.251129,74.007027 
	C50.179104,73.663200 50.344036,73.288033 50.910923,73.836136 
	C50.998581,74.005493 50.500275,74.004906 50.251129,74.007027 
z"/>
<path fill="#ECE5DD" opacity="1.000000" stroke="none" 
	d="
M133.999390,200.000610 
	C133.017899,200.001221 132.037018,200.001221 130.713715,200.001221 
	C131.835159,198.415726 132.650253,197.307861 133.959412,199.686554 
	C134.001221,199.998779 134.000000,200.000000 133.999390,200.000610 
z"/>
<path fill="#F2EDE9" opacity="1.000000" stroke="none" 
	d="
M125.075195,192.165924 
	C125.169998,191.968765 125.341858,191.938293 125.750900,192.018753 
	C125.709473,192.197311 125.430870,192.264954 125.075195,192.165924 
z"/>
<path fill="#DCD2D3" opacity="1.000000" stroke="none" 
	d="
M153.019104,198.306366 
	C154.452728,197.423477 155.884979,196.768341 157.659454,196.093994 
	C158.390686,199.633514 156.964752,200.620041 153.384644,199.031647 
	C153.017700,198.989700 153.017731,198.534149 153.019104,198.306366 
z"/>
<path fill="#DCD2D3" opacity="1.000000" stroke="none" 
	d="
M158.992065,195.910950 
	C158.938934,195.281754 159.160980,195.072708 159.764847,195.014343 
	C160.021652,195.751129 161.638306,195.820114 160.799652,196.789566 
	C160.661209,196.949631 159.705017,196.402283 158.992065,195.910950 
z"/>
<path fill="#E1D7CF" opacity="1.000000" stroke="none" 
	d="
M164.449615,200.532990 
	C164.416306,200.477356 164.482910,200.588608 164.449615,200.532990 
z"/>
<path fill="#F0E9E3" opacity="1.000000" stroke="none" 
	d="
M143.104645,198.003418 
	C143.534668,197.772369 143.961731,197.852051 144.692413,198.054474 
	C144.693420,198.650818 144.455429,199.450729 144.073914,199.526321 
	C143.396667,199.660522 143.161804,198.948563 143.104645,198.003418 
z"/>
<path fill="#DCDCDE" opacity="1.000000" stroke="none" 
	d="
M136.317642,60.923676 
	C136.071609,58.758057 136.356583,57.004341 138.935287,59.625175 
	C138.206680,60.294773 137.423355,60.627064 136.317642,60.923676 
z"/>
</svg>