<svg version="1.1" id="Layer_1" xmlns="http://www.w3.org/2000/svg" xmlns:xlink="http://www.w3.org/1999/xlink" x="0px" y="0px"
	 width="100%" viewBox="0 0 325 325" enable-background="new 0 0 325 325" xml:space="preserve">
<path fill="#0866FF" opacity="1.000000" stroke="none" 
	d="
M1.245555,189.286423 
	C1.000000,172.312439 1.000000,155.624878 1.000000,138.468658 
	C2.792482,131.645859 3.536785,125.062263 5.453440,118.720123 
	C20.495699,68.945938 51.676624,33.429138 99.239601,12.377367 
	C111.446777,6.974369 124.155586,3.210584 137.714813,1.245055 
	C154.687561,1.000000 171.375122,1.000000 188.531342,1.000000 
	C195.354141,2.792480 201.937729,3.536785 208.279877,5.453445 
	C258.054047,20.495707 293.570892,51.676636 314.622650,99.239616 
	C320.025604,111.446777 323.789459,124.155579 325.754944,137.714813 
	C326.000000,154.687561 326.000000,171.375122 326.000000,188.531342 
	C324.207489,195.354126 323.463226,201.937744 321.546570,208.279877 
	C306.504303,258.054077 275.323242,293.570770 227.760422,314.622650 
	C215.553238,320.025696 202.844391,323.789368 189.285172,325.754944 
	C187.285645,326.000000 185.571289,326.000000 183.428467,326.000000 
	C181.299454,324.052856 181.498199,321.658234 181.496536,319.342682 
	C181.472687,286.182709 181.453293,253.022705 181.503967,219.862793 
	C181.515244,212.488876 182.505249,211.549286 189.921112,211.498581 
	C199.918762,211.430222 209.918747,211.377640 219.914139,211.526947 
	C224.175003,211.590591 226.155045,209.986694 226.924225,205.691833 
	C228.950760,194.376282 231.061127,183.073349 233.118347,171.762161 
	C234.162857,166.019135 233.698120,165.549408 227.594711,165.530579 
	C214.930695,165.491470 202.266327,165.567307 189.602493,165.498001 
	C182.467896,165.458954 181.472382,164.541397 181.528992,157.378784 
	C181.592056,149.402939 181.169876,141.447418 182.571732,133.462097 
	C185.855148,114.758804 199.543381,109.196373 212.366882,108.565445 
	C218.854874,108.246223 225.364822,108.389107 231.859650,108.517265 
	C235.874527,108.596474 237.569885,107.069969 237.517319,102.957512 
	C237.383163,92.461662 237.459518,81.962463 237.482437,71.464798 
	C237.489578,68.197311 236.446365,66.112801 232.891708,65.534302 
	C212.677231,62.244461 192.536179,61.090416 172.432556,66.452019 
	C149.538239,72.557884 135.446182,87.259811 129.358170,109.932274 
	C125.645622,123.758209 125.340851,137.894196 125.489105,152.090851 
	C125.629311,165.516846 125.518150,165.515686 112.125008,165.520905 
	C107.292686,165.522781 102.458290,165.600311 97.628708,165.502823 
	C94.111458,165.431854 92.463280,166.737762 92.491264,170.453079 
	C92.581635,182.449738 92.574432,194.448242 92.495186,206.445084 
	C92.471123,210.088089 94.023201,211.512222 97.584305,211.492935 
	C104.748451,211.454117 111.917274,211.320297 119.077995,211.559402 
	C124.074318,211.726242 125.421127,212.915405 125.424904,217.868866 
	C125.450813,251.857269 125.839104,285.846832 125.147034,320.240570 
	C123.702843,323.718323 121.360275,322.167145 119.480324,321.662140 
	C104.092705,317.528595 89.635811,311.214020 76.209656,302.630829 
	C39.005707,278.846832 15.075502,245.427872 3.878093,202.783218 
	C2.735922,198.433319 2.258110,193.981079 1.245555,189.286423 
z"/>
<path fill="#FEFFFF" opacity="1.000000" stroke="none" 
	d="
M124.208267,322.155701 
	C123.981941,287.004242 123.939247,252.172684 124.079742,217.341873 
	C124.093689,213.883072 123.292923,212.787994 119.718254,212.911453 
	C111.561775,213.193192 103.386612,212.889526 95.223885,213.058212 
	C92.221725,213.120239 90.849358,212.664383 90.907654,209.102295 
	C91.134003,195.273438 91.109459,181.437180 90.921135,167.607178 
	C90.875275,164.239471 91.962189,163.409653 95.156151,163.489578 
	C103.317245,163.693817 111.492104,163.386581 119.650635,163.636765 
	C123.162727,163.744461 124.115768,162.683578 124.082527,159.189880 
	C123.941612,144.378357 123.367645,129.522369 126.605049,114.893845 
	C133.750824,82.604996 154.427597,64.863457 187.455139,61.939571 
	C203.037109,60.560123 218.372589,61.680496 233.731308,64.021103 
	C237.551300,64.603256 239.230804,65.864014 239.073303,70.291740 
	C238.652908,82.109467 238.783768,93.954903 239.017746,105.782951 
	C239.089615,109.415825 237.951859,110.188614 234.515259,110.026260 
	C227.700653,109.704300 220.848785,109.626785 214.034775,109.938667 
	C193.721649,110.868408 184.189087,120.486816 183.198273,140.937119 
	C182.900131,147.090805 183.235153,153.275436 182.927551,159.428268 
	C182.762009,162.739441 183.811401,163.662338 187.082825,163.626648 
	C201.746918,163.466614 216.416824,163.724594 231.077789,163.456863 
	C235.573761,163.374756 236.201187,164.514328 235.319748,168.785995 
	C232.564163,182.140015 230.260880,195.589813 227.951553,209.031570 
	C227.443619,211.988129 226.434372,213.149643 223.195724,213.087769 
	C211.533951,212.865067 199.855728,213.274261 188.204041,212.865662 
	C183.534714,212.701904 182.886581,214.272293 182.906921,218.421280 
	C183.072678,252.251923 183.010452,286.083740 182.969879,319.915161 
	C182.967758,321.686554 183.569153,323.590820 182.657684,325.615295 
	C168.312439,326.000000 153.624878,326.000000 138.468658,326.000000 
	C133.664307,324.120667 128.582230,325.112457 124.208267,322.155701 
z"/>
<path fill="#000000" opacity="1.000000" stroke="none" 
	d="
M137.531342,1.000000 
	C138.914276,2.931078 137.327408,2.816229 136.296417,2.969051 
	C111.338997,6.668429 88.945030,16.572081 68.464554,31.053230 
	C49.833176,44.226936 34.890419,60.846210 23.262283,80.407509 
	C12.773704,98.051804 5.715373,116.992302 2.754570,137.382004 
	C2.697742,137.773361 2.111915,138.087891 1.386451,138.219147 
	C1.000000,93.571136 1.041076,49.142151 0.913919,4.713651 
	C0.904772,1.517762 1.729883,0.918084 4.774789,0.925583 
	C48.870548,1.034181 92.966660,1.000000 137.531342,1.000000 
z"/>
<path fill="#000000" opacity="1.000000" stroke="none" 
	d="
M326.000000,137.531342 
	C324.063965,138.934937 324.179230,137.331741 324.033417,136.308701 
	C320.321228,110.264801 309.753937,86.968956 294.314117,66.042046 
	C277.774567,43.624580 256.451691,26.596809 231.017502,15.085071 
	C217.982590,9.185348 204.437347,4.608031 190.091995,2.895991 
	C189.547668,2.831028 189.075363,2.162413 188.784760,1.387548 
	C233.428848,1.000000 277.857819,1.041074 322.286316,0.913924 
	C325.482147,0.904778 326.081940,1.729780 326.074432,4.774764 
	C325.965820,48.870529 326.000000,92.966652 326.000000,137.531342 
z"/>
<path fill="#000000" opacity="1.000000" stroke="none" 
	d="
M123.603371,321.776245 
	C128.874268,322.878815 133.936615,323.238617 138.300323,325.643372 
	C93.571144,326.000000 49.142166,325.958923 4.713675,326.086060 
	C1.517870,326.095215 0.918076,325.270233 0.925576,322.225250 
	C1.034187,278.129486 1.000000,234.033356 1.000000,189.468658 
	C2.933515,188.065155 2.821180,189.666199 2.966500,190.688919 
	C6.664769,216.716553 17.206955,240.015717 32.651646,260.907227 
	C49.289715,283.412964 70.706398,300.472290 96.319214,312.056519 
	C105.031364,315.996857 114.117516,318.899628 123.603371,321.776245 
z"/>
<path fill="#000000" opacity="1.000000" stroke="none" 
	d="
M189.468658,326.000000 
	C188.085754,324.068939 189.672607,324.183716 190.703613,324.030914 
	C215.661209,320.331787 238.054871,310.427399 258.535583,295.946564 
	C277.167328,282.773010 292.109619,266.153198 303.738037,246.592102 
	C314.226929,228.947861 321.284790,210.007034 324.245667,189.617264 
	C324.302490,189.225906 324.888306,188.911377 325.613647,188.780518 
	C326.000000,233.428848 325.958923,277.857819 326.086090,322.286316 
	C326.095215,325.482117 325.270264,326.081940 322.225250,326.074402 
	C278.129486,325.965790 234.033356,326.000000 189.468658,326.000000 
z"/>
</svg>