<svg version="1.1" id="Layer_1" xmlns="http://www.w3.org/2000/svg" xmlns:xlink="http://www.w3.org/1999/xlink" x="0px" y="0px"
	 width="100%" viewBox="0 0 318 159" enable-background="new 0 0 318 159" xml:space="preserve">
<path fill="#F4F4F4" opacity="1.000000" stroke="none" 
	d="
M198.000000,160.000000 
	C132.000015,160.000000 66.500015,160.000000 1.000018,160.000000 
	C1.000012,107.000015 1.000012,54.000027 1.000006,1.000032 
	C106.999969,1.000021 212.999939,1.000021 318.999939,1.000011 
	C318.999939,53.999966 318.999939,106.999931 318.999969,159.999939 
	C278.833344,160.000000 238.666672,160.000000 198.000000,160.000000 
M104.757500,110.203667 
	C113.999207,128.659454 128.926254,140.343445 148.862823,144.504318 
	C170.244125,148.966705 190.275726,145.502548 207.556656,129.668762 
	C225.202621,113.477112 229.658386,84.228569 224.341644,68.401688 
	C204.087952,68.401688 183.851089,68.401688 163.472015,68.401688 
	C163.472015,76.968048 163.472015,85.185974 163.472015,93.937973 
	C175.374161,93.937973 186.938141,93.937973 198.782349,93.937973 
	C197.526733,102.978996 192.386459,108.875923 185.543518,114.344582 
	C172.682556,121.850517 159.436722,122.765289 145.962555,116.264130 
	C136.191071,111.549484 130.036209,103.435440 125.866013,92.897507 
	C123.000610,84.058327 123.756683,75.250854 126.591644,65.924461 
	C131.487366,54.194820 139.799088,45.896954 151.978745,42.180740 
	C165.515427,38.050468 177.918381,40.965820 188.239868,49.682804 
	C194.529343,43.373764 200.480148,37.404438 206.558044,31.307634 
	C204.037857,29.327070 201.414337,26.866919 198.423065,24.994251 
	C191.354828,20.569244 184.054535,17.231602 175.323135,16.606375 
	C162.624756,15.697089 149.973907,14.079669 138.028152,19.773544 
	C132.554108,22.382717 127.496414,25.935089 122.449028,29.353718 
	C114.420158,34.791733 108.579475,42.111279 104.305275,51.475372 
	C102.090874,58.871120 98.859917,66.136612 97.891800,73.692047 
	C96.296967,86.138603 97.961037,98.420151 104.757500,110.203667 
M197.500000,66.000305 
	C188.458649,66.000305 179.417282,66.000305 170.375931,66.000305 
	C170.382797,66.237267 170.389664,66.474236 170.396530,66.711197 
	C188.199249,66.711197 206.001953,66.711197 223.804672,66.711197 
	C223.805252,66.474236 223.805817,66.237267 223.806381,66.000305 
	C215.370926,66.000305 206.935455,66.000305 197.500000,66.000305 
z"/>
<path fill="#E2402E" opacity="1.000000" stroke="none" 
	d="
M104.823509,51.070347 
	C108.579475,42.111279 114.420158,34.791733 122.449028,29.353718 
	C127.496414,25.935089 132.554108,22.382717 138.028152,19.773544 
	C149.973907,14.079669 162.624756,15.697089 175.323135,16.606375 
	C184.054535,17.231602 191.354828,20.569244 198.423065,24.994251 
	C201.414337,26.866919 204.037857,29.327070 206.558044,31.307634 
	C200.480148,37.404438 194.529343,43.373764 188.239868,49.682804 
	C177.918381,40.965820 165.515427,38.050468 151.978745,42.180740 
	C139.799088,45.896954 131.487366,54.194820 125.998047,66.047195 
	C118.544144,61.136730 111.683823,56.103539 104.823509,51.070347 
z"/>
<path fill="#2FA24F" opacity="1.000000" stroke="none" 
	d="
M206.932907,129.911118 
	C190.275726,145.502548 170.244125,148.966705 148.862823,144.504318 
	C128.926254,140.343445 113.999207,128.659454 105.064087,109.670654 
	C112.206810,103.971878 119.042946,98.806107 125.879074,93.640335 
	C130.036209,103.435440 136.191071,111.549484 145.962555,116.264130 
	C159.436722,122.765289 172.682556,121.850517 186.145172,114.424774 
	C193.475510,119.640343 200.204208,124.775734 206.932907,129.911118 
z"/>
<path fill="#3D7DEA" opacity="1.000000" stroke="none" 
	d="
M207.244781,129.789948 
	C200.204208,124.775734 193.475510,119.640343 186.490723,114.323784 
	C192.386459,108.875923 197.526733,102.978996 198.782349,93.937973 
	C186.938141,93.937973 175.374161,93.937973 163.472015,93.937973 
	C163.472015,85.185974 163.472015,76.968048 163.472015,68.401688 
	C183.851089,68.401688 204.087952,68.401688 224.341644,68.401688 
	C229.658386,84.228569 225.202621,113.477112 207.244781,129.789948 
z"/>
<path fill="#EFB507" opacity="1.000000" stroke="none" 
	d="
M125.872543,93.268921 
	C119.042946,98.806107 112.206810,103.971878 105.036423,109.320908 
	C97.961037,98.420151 96.296967,86.138603 97.891800,73.692047 
	C98.859917,66.136612 102.090874,58.871120 104.564392,51.272858 
	C111.683823,56.103539 118.544144,61.136730 125.750984,66.313583 
	C123.756683,75.250854 123.000610,84.058327 125.872543,93.268921 
z"/>
<path fill="#F7F2E8" opacity="1.000000" stroke="none" 
	d="
M198.000000,66.000305 
	C206.935455,66.000305 215.370926,66.000305 223.806381,66.000305 
	C223.805817,66.237267 223.805252,66.474236 223.804672,66.711197 
	C206.001953,66.711197 188.199249,66.711197 170.396530,66.711197 
	C170.389664,66.474236 170.382797,66.237267 170.375931,66.000305 
	C179.417282,66.000305 188.458649,66.000305 198.000000,66.000305 
z"/>
</svg>